<svg id="logo-svg" aria-label="Channel Signal Logo" title="Channel Signal Logo" xmlns="http://www.w3.org/2000/svg" viewBox="0 0 300 25"><path d="M8.32,24.65a8.35,8.35,0,0,1-6.1-2.46C0,19.9,0,17.1,0,13.22s0-6.69,2.22-9A8.35,8.35,0,0,1,8.32,1.8,8,8,0,0,1,16.64,8.9H12.16a3.73,3.73,0,0,0-3.8-3.22A3.65,3.65,0,0,0,5.52,6.85c-0.86.95-1.12,2-1.12,6.34s0.26,5.39,1.12,6.34A3.65,3.65,0,0,0,8.35,20.7a3.73,3.73,0,0,0,3.8-3.22h4.48A8,8,0,0,1,8.32,24.65Z" fill="#fff"></path><path d="M33.15,24.45V15H25.5v9.41H21V1.93h4.42v9.23h7.66V2h4.44V24.5h-4.4v0Z" fill="#fff"></path><path d="M56.33,24.45l-1.29-4H46.94l-1.34,4H41L49.21,1.93h3.46l8.26,22.52h-4.6ZM51.05,8.61l-2.87,8.17h5.62Z" fill="#fff"></path><path d="M77.7,24.45L68.76,10.67V24.45h-4.4V1.93h3.93l9,13.75V2h4.42V24.5h-4v0Z" fill="#fff"></path><path d="M100.93,24.45L92,10.67V24.45h-4.4V1.93h3.93l9,13.75V2h4.42V24.5h-3.95v0Z" fill="#fff"></path><path d="M110.77,24.45V1.93h14.89v4H115.19v5.26h8.92v3.91h-8.92v5.45h10.47v3.93H110.77Z" fill="#fff"></path><path d="M130.62,24.45V1.93H135V20.54h10.25v3.91H130.62Z" fill="#fff"></path><path d="M163.73,24.65a10.66,10.66,0,0,1-8.26-3l2.87-2.85a7.43,7.43,0,0,0,5.46,1.9c2.61,0,4-1,4-2.78a2.48,2.48,0,0,0-.7-1.9,3.38,3.38,0,0,0-2-.79l-2.74-.39A7.7,7.7,0,0,1,158,13a5.91,5.91,0,0,1-1.62-4.42c0-4,3-6.82,7.87-6.82a9.75,9.75,0,0,1,7.35,2.62l-2.8,2.75a6.32,6.32,0,0,0-4.63-1.61c-2.35,0-3.5,1.29-3.5,2.85a2.17,2.17,0,0,0,.66,1.61,3.9,3.9,0,0,0,2.09.88L166,11.26A7.5,7.5,0,0,1,170.37,13a6.27,6.27,0,0,1,1.75,4.83C172.12,22.18,168.46,24.65,163.73,24.65Z" fill="#1eb9ed"></path><path d="M176.28,24.45V1.93h4.42V24.45h-4.42Z" fill="#1eb9ed"></path><path d="M199.27,22.09a9,9,0,0,1-12.48.1c-2.25-2.28-2.25-5.08-2.25-9s0-6.69,2.22-9a8.25,8.25,0,0,1,6.1-2.46A8.08,8.08,0,0,1,201.37,9h-4.45a3.83,3.83,0,0,0-4.06-3.22A3.69,3.69,0,0,0,190,7c-0.86.95-1.08,2-1.08,6.31s0.23,5.39,1.08,6.34a3.65,3.65,0,0,0,2.83,1.17A4.16,4.16,0,0,0,196,19.55a4.31,4.31,0,0,0,1-3V15.62h-4.16V12h8.55v3.22C201.42,18.48,200.85,20.45,199.27,22.09Z" fill="#1eb9ed"></path><path d="M218.63,24.45l-9-13.79V24.45h-4.42V1.93h3.93l9,13.75V2h4.42V24.5h-3.93v0Z" fill="#1eb9ed"></path><path d="M240.69,24.45l-1.33-4h-8.09l-1.36,4h-4.6l8.22-22.52H237l8.26,22.52h-4.56ZM235.41,8.61l-2.87,8.17h5.62Z" fill="#1eb9ed"></path><path d="M248.09,24.45V1.93h4.44V20.54h10.25v3.91H248.09Z" fill="#1eb9ed"></path><path d="M285.74,19.31h-6.38V16h4.73L292.86,4.6,300,11.39v-9A2.39,2.39,0,0,0,297.6,0H277.24a2.39,2.39,0,0,0-2.4,2.38V22.62a2.39,2.39,0,0,0,2.4,2.38H297.6a2.39,2.39,0,0,0,2.4-2.38V16l-6.75-6.44Z" fill="#fff"></path><polygon class="pulse" points="292.86 4.6 284.09 15.97 279.36 15.97 279.36 19.29 285.74 19.29 293.25 9.56 300 15.99 300 11.41 292.86 4.6"></polygon></svg>
